<?xml version="1.0" encoding="UTF-8" standalone="no"?>
<svg
   version="1.1"
   id="svg2"
   width="200"
   height="200"
   xmlns="http://www.w3.org/2000/svg">

    <g
     id="g8"
     transform="matrix(0.2,0,0,-0.2,-40,235)">
    <g
       id="g10">
      <path
         d="M 798.772,921.788 C 977.289,1199.99 564.813,1239.61 571.264,1030.44 547.469,1014.47 523.679,998.413 499.885,982.4 c 0.873,0.042 1.765,0.042 2.677,0 h 118.713 c -0.168,0.831 -0.396,1.701 -0.684,2.613 C 560.993,1171.04 956.172,1165.77 687.796,857.94 502.312,645.2 561.017,466.894 594.641,237.39 581.386,561.066 636.417,668.722 798.772,921.788"
         style="fill:#231f20;fill-opacity:1;fill-rule:evenodd;stroke:none"
         id="path14" />
      <path
         d="M 862.684,921.538 C 802.465,693.78 635.359,694.985 665.395,238.8 c 0,0 12.777,155.62 124.603,354.334 111.827,198.762 72.686,328.404 72.686,328.404"
         style="fill:#231f20;fill-opacity:1;fill-rule:evenodd;stroke:none"
         id="path16" />
      <path
         d="M 897.973,700.993 C 904.236,589.603 690.377,446.461 790.643,236.89 821.467,426.471 915.428,471.481 897.973,700.993"
         style="fill:#231f20;fill-opacity:1;fill-rule:evenodd;stroke:none"
         id="path18" />
      <path
         d="m 725.653,1042.02 c 0,13.36 -10.847,24.18 -24.229,24.18 -13.357,0 -24.206,-10.82 -24.206,-24.18 0,-13.4 10.849,-24.23 24.206,-24.23 13.382,0 24.229,10.83 24.229,24.23"
         style="fill:#231f20;fill-opacity:1;fill-rule:evenodd;stroke:none"
         id="path20" />
    </g>
  </g>
</svg>